<svg version="1.2" xmlns="http://www.w3.org/2000/svg" viewBox="0 0 688 239" width="308" height="107">
	<title>boost-ai</title>
	<defs>
		<linearGradient id="g1" x1="233.3" y1="-307.2" x2="895.8" y2="-13.3" gradientUnits="userSpaceOnUse">
			<stop offset=".216" stop-color="#394cde"/>
			<stop offset=".855" stop-color="#b25dd7"/>
		</linearGradient>
		<linearGradient id="g2" x1="165.5" y1="-332.7" x2="962.1" y2="20.7" gradientUnits="userSpaceOnUse">
			<stop offset=".216" stop-color="#394cde"/>
			<stop offset=".855" stop-color="#b25dd7"/>
		</linearGradient>
		<linearGradient id="g3" x1="158.9" y1="-368.5" x2="955.5" y2="-15.1" gradientUnits="userSpaceOnUse">
			<stop offset=".216" stop-color="#394cde"/>
			<stop offset=".855" stop-color="#b25dd7"/>
		</linearGradient>
		<linearGradient id="g4" x1="167.9" y1="-397.7" x2="940.4" y2="-54.9" gradientUnits="userSpaceOnUse">
			<stop offset=".216" stop-color="#394cde"/>
			<stop offset=".855" stop-color="#b25dd7"/>
		</linearGradient>
		<linearGradient id="g5" x1="230.5" y1="-425.2" x2="922.1" y2="-118.4" gradientUnits="userSpaceOnUse">
			<stop offset=".216" stop-color="#394cde"/>
			<stop offset=".855" stop-color="#b25dd7"/>
		</linearGradient>
		<linearGradient id="g6" x1="160.5" y1="-31" x2="823" y2="263" gradientUnits="userSpaceOnUse">
			<stop offset=".216" stop-color="#394cde"/>
			<stop offset=".855" stop-color="#b25dd7"/>
		</linearGradient>
		<linearGradient id="g7" x1="92.7" y1="-56.5" x2="889.3" y2="297" gradientUnits="userSpaceOnUse">
			<stop offset=".216" stop-color="#394cde"/>
			<stop offset=".855" stop-color="#b25dd7"/>
		</linearGradient>
		<linearGradient id="g8" x1="86.1" y1="-92.3" x2="882.7" y2="261.2" gradientUnits="userSpaceOnUse">
			<stop offset=".216" stop-color="#394cde"/>
			<stop offset=".855" stop-color="#b25dd7"/>
		</linearGradient>
		<linearGradient id="g9" x1="95.1" y1="-121.4" x2="867.6" y2="221.3" gradientUnits="userSpaceOnUse">
			<stop offset=".216" stop-color="#394cde"/>
			<stop offset=".855" stop-color="#b25dd7"/>
		</linearGradient>
		<linearGradient id="g10" x1="157.7" y1="-149" x2="849.3" y2="157.9" gradientUnits="userSpaceOnUse">
			<stop offset=".216" stop-color="#394cde"/>
			<stop offset=".855" stop-color="#b25dd7"/>
		</linearGradient>
		<linearGradient id="g11" x1="179.9" y1="251.7" x2="842.4" y2="545.7" gradientUnits="userSpaceOnUse">
			<stop offset=".216" stop-color="#394cde"/>
			<stop offset=".855" stop-color="#b25dd7"/>
		</linearGradient>
		<linearGradient id="g12" x1="112.1" y1="226.2" x2="908.8" y2="579.7" gradientUnits="userSpaceOnUse">
			<stop offset=".216" stop-color="#394cde"/>
			<stop offset=".855" stop-color="#b25dd7"/>
		</linearGradient>
		<linearGradient id="g13" x1="105.5" y1="190.4" x2="902.1" y2="543.9" gradientUnits="userSpaceOnUse">
			<stop offset=".216" stop-color="#394cde"/>
			<stop offset=".855" stop-color="#b25dd7"/>
		</linearGradient>
		<linearGradient id="g14" x1="114.5" y1="161.3" x2="887" y2="504" gradientUnits="userSpaceOnUse">
			<stop offset=".216" stop-color="#394cde"/>
			<stop offset=".855" stop-color="#b25dd7"/>
		</linearGradient>
		<linearGradient id="g15" x1="177.1" y1="133.7" x2="868.8" y2="440.6" gradientUnits="userSpaceOnUse">
			<stop offset=".216" stop-color="#394cde"/>
			<stop offset=".855" stop-color="#b25dd7"/>
		</linearGradient>
		<linearGradient id="g16" x1="187.3" y1="525" x2="849.8" y2="818.9" gradientUnits="userSpaceOnUse">
			<stop offset=".216" stop-color="#394cde"/>
			<stop offset=".855" stop-color="#b25dd7"/>
		</linearGradient>
		<linearGradient id="g17" x1="119.5" y1="499.4" x2="916.1" y2="852.9" gradientUnits="userSpaceOnUse">
			<stop offset=".216" stop-color="#394cde"/>
			<stop offset=".855" stop-color="#b25dd7"/>
		</linearGradient>
		<linearGradient id="g18" x1="112.9" y1="463.7" x2="909.5" y2="817.1" gradientUnits="userSpaceOnUse">
			<stop offset=".216" stop-color="#394cde"/>
			<stop offset=".855" stop-color="#b25dd7"/>
		</linearGradient>
		<linearGradient id="g19" x1="121.9" y1="434.5" x2="894.4" y2="777.3" gradientUnits="userSpaceOnUse">
			<stop offset=".216" stop-color="#394cde"/>
			<stop offset=".855" stop-color="#b25dd7"/>
		</linearGradient>
		<linearGradient id="g20" x1="184.5" y1="407" x2="876.1" y2="713.8" gradientUnits="userSpaceOnUse">
			<stop offset=".216" stop-color="#394cde"/>
			<stop offset=".855" stop-color="#b25dd7"/>
		</linearGradient>
	</defs>
	<style>
		.s0 { fill: url(#g1) } 
		.s1 { fill: url(#g2) } 
		.s2 { fill: url(#g3) } 
		.s3 { fill: url(#g4) } 
		.s4 { fill: url(#g5) } 
		.s5 { fill: #394cde } 
		.s6 { fill: #ffffff } 
		.s7 { fill: url(#g6) } 
		.s8 { fill: url(#g7) } 
		.s9 { fill: url(#g8) } 
		.s10 { fill: url(#g9) } 
		.s11 { fill: url(#g10) } 
		.s12 { fill: url(#g11) } 
		.s13 { fill: url(#g12) } 
		.s14 { fill: url(#g13) } 
		.s15 { fill: url(#g14) } 
		.s16 { fill: url(#g15) } 
		.s17 { fill: url(#g16) } 
		.s18 { fill: url(#g17) } 
		.s19 { fill: url(#g18) } 
		.s20 { fill: url(#g19) } 
		.s21 { fill: url(#g20) } 
	</style>
	<g id="Layer 1">
		<g id="&lt;Group&gt;">
			<g id="&lt;Group&gt;">
				<path id="&lt;Compound Path&gt;" fill-rule="evenodd" class="s0" d="m411.3-116.8h-37v-87.7h36.4c7.8 0 14.3 2 19.8 6.1 5.4 4 8.2 9.7 8.2 17.1 0 8.2-4.1 14.5-12.3 18.7v0.2c10.9 4.1 16.2 10.2 16.2 21.4 0 17.8-16 24.2-31.3 24.2zm-3-71h-16.3v18.9h15c9.3 0 13.9-3.2 13.9-9.6 0-6.7-5.5-9.3-12.6-9.3zm2.2 34.6h-18.5v19.6h19.1q13.8 0 13.8-9.7c0-6.6-4.9-9.9-14.4-9.9z"/>
				<path id="&lt;Compound Path&gt;" fill-rule="evenodd" class="s1" d="m461.4-168.9c6.4-6 14.2-9 23.3-9 9 0 16.8 3 23 8.9 6.3 6 9.4 13.2 9.4 22.1 0 9-3.1 16.5-9.5 22.5-6.4 5.9-14.1 9-23.2 9-9.1 0-16.9-2.9-23.1-8.9-6.3-5.9-9.5-13.3-9.5-22.3 0-8.8 3.2-16.3 9.6-22.3zm12.6 33.2c2.8 2.8 6.4 4.3 10.6 4.3 8.4 0 14.6-6.4 14.6-15.4 0-4.4-1.4-8.1-4.2-10.9-2.8-2.9-6.4-4.3-10.6-4.3q-6.2 0-10.4 4.3c-2.8 2.8-4.2 6.5-4.2 10.9 0 4.5 1.4 8.2 4.2 11.1z"/>
				<path id="&lt;Compound Path&gt;" fill-rule="evenodd" class="s2" d="m535.4-168.9c6.4-6 14.2-9 23.3-9 9.1 0 16.8 3 23.1 8.9 6.2 6 9.4 13.2 9.4 22.1 0 9-3.2 16.5-9.5 22.5-6.4 5.9-14.2 9-23.2 9-9.2 0-16.9-2.9-23.2-8.9-6.3-5.9-9.4-13.3-9.4-22.3 0-8.8 3.1-16.3 9.5-22.3zm12.7 33.2c2.8 2.8 6.3 4.3 10.5 4.3 8.4 0 14.7-6.4 14.7-15.4 0-4.4-1.5-8.1-4.3-10.9-2.8-2.9-6.4-4.3-10.5-4.3q-6.2 0-10.4 4.3c-2.8 2.8-4.3 6.5-4.3 10.9 0 4.5 1.5 8.2 4.3 11.1z"/>
				<path id="&lt;Compound Path&gt;" class="s3" d="m624.8-115.4c-12.6 0-21.3-4.6-26.1-13.8l12.9-7.6c2.4 4.8 6.9 7.3 13.4 7.3 4.4 0 7.3-2.1 7.3-4.4 0-2.4-1.9-4.2-9.5-5.8-14.3-3.2-21.3-9.7-21.3-19.4 0-5.5 2.2-10.1 6.7-13.6 4.6-3.5 10-5.3 16.2-5.3 11.1 0 19.2 4.8 23.1 12.1l-12.6 7.5c-2.3-3.8-5.9-5.8-10.9-5.8-3.6 0-6.3 2.1-6.3 4.4 0 2.6 2.6 4.4 7.9 5.5 15.1 3.1 23 9.1 23 19.5 0 11.5-9 19.4-23.8 19.4z"/>
				<path id="&lt;Compound Path&gt;" class="s4" d="m696.8-117.1c-2.6 0.8-5.3 1.1-8.2 1.1-15.6 0-23.7-8.5-23.7-22.5v-23h-10.8v-15.1h11v-18.7h17.2v18.7h14.8v15.1h-14.8v20.9c0 6.8 3.6 9.5 10.5 9.5 1.4 0 2.8-0.1 4-0.5z"/>
			</g>
			<g id="&lt;Group&gt;">
				<path id="&lt;Path&gt;" class="s5" d="m328.5-95.2h-233.4c-14.1 0-25.5-11.4-25.5-25.4v-77c0-14.1 11.4-25.5 25.5-25.5h233.4c14 0 25.4 11.4 25.4 25.5v77c0 14-11.4 25.4-25.4 25.4z"/>
				<g id="&lt;Group&gt;">
					<g id="&lt;Group&gt;">
						<path id="&lt;Compound Path&gt;" fill-rule="evenodd" class="s6" d="m104.3-119.4q0-0.3 0.5-0.3 0.2 0 1.3 0.2 1 0.3 3.1 0.5 2.1 0.3 5.2 0.3 17 0 28.7-7.3 11.7-7.3 11.7-17 0-12.9-25.4-12.9-1.4 0-3.9 0.1-2.6 0-3.7 0l-9.2 33q-3 0-4.9-1.4-1.9-1.5-1.9-3.6 0-0.9 1.4-5.9 1.8-5.4 4.5-14 2.8-8.6 8-21.9 5.1-13.2 9.3-21-3.9 0.8-7.1 2.2-3.3 1.4-5 2.4-1.8 1-2.2 1-0.8 0-2-1-1.3-1.1-1.3-1.8 4.5-1.8 7.2-2.8 2.7-1 7.5-1.9 4.7-0.9 9.8-0.9 4.1 0 7.8 0.6 3.6 0.6 7.5 2.1 3.9 1.6 6.3 5 2.3 3.5 2.3 8.5 0 15.7-23.3 19.5 23.2 1.5 23.2 16.6 0 6.9-4.7 12.7-4.7 5.9-11.7 9.3-7 3.5-14.3 5.4-7.4 1.9-13.4 1.9-11.3 0-11.3-7.6zm18.1-38.8q6-0.2 11.3-1.3 5.2-1.1 10-3.3 4.7-2.2 7.4-6.1 2.8-3.9 2.8-9.1 0-13.3-17.2-13.3-1.3 0-1.9 0.1-6 11.6-12.4 33z"/>
						<path id="&lt;Compound Path&gt;" class="s6" d="m164.7-133.2q4.9-9.4 8.2-19.3-1.1-1-1.1-2.4 0-2.8 1.6-4.9 1.6-2.1 2.7-2.1 1.4 0 1.4 2.5 0 0.4-0.3 2-0.4 1.5-0.4 1.7 0 1.3 1.6 2.6 1.6 1.4 3.5 2.6 2 1.3 3.6 3.7 1.7 2.3 1.7 5.3 0 3.4-2.6 9.3-2.6 6-2.6 7.9 0 3.1 3.1 3.1 4.5 0 9.8-5.1 5.4-5.1 7.5-10.1l1.3 1q-3.1 7-9.1 12.5-6 5.4-12.2 5.4-3.5 0-5.4-1.9-2-1.8-2-4.8 0-3.1 2.8-9.7 2.8-6.7 2.8-9.3 0-1-0.3-2-0.3-1-0.6-1.5-0.3-0.6-1.1-1.3l-1.1-1q-0.3-0.3-1.4-1.1-1-0.7-1.2-0.9-5 12.2-9.3 19.6z"/>
						<path id="&lt;Compound Path&gt;" class="s6" d="m197.3-123.8q0-6 4.2-13.4 4.2-7.3 10.9-12.6 6.7-5.3 13-5.3 4 0 6.6 2.1 2.7 2.2 2.7 5.6 0 4.4-5 4.4 0.5-1.9 0.5-3.6 0-5.7-5-5.7-4.5 0-9.5 5.1-5 5.2-8.2 12-3.2 6.7-3.2 11.7 0 4 2.7 4 1.9 0 4.3-1.7 2.4-1.8 4.5-3.9 2-2.2 4.8-5.8 2.8-3.6 4.1-5.5l3.7-5.3q4.1 0.7 4.1 2.5 0 0.9-3 6.1-3 5.3-3 8.1 0 1.7 0.9 3.1 0.8 1.4 2.6 1.4 3 0 7.5-4.3 4.4-4.2 8.8-11.8l1 1q-3.1 8.1-8.9 13.3-5.7 5.1-11.3 5.1-3.5 0-5.4-2-1.8-2.1-1.8-5 0-1.2 0.3-2.9-4.6 6-8.2 8.8-3.6 2.8-7.2 2.8-3.4 0-5.5-2.1-2-2.1-2-6.2z"/>
						<path id="&lt;Compound Path&gt;" class="s6" d="m243.8-126q0-4 2.1-10.7 2.2-6.7 5.7-12.3 3.6-5.6 6.8-5.6 2.3 0 2.3 2.2 0 1.2-2.7 5.6-2.6 4.4-5.3 10-2.6 5.5-2.6 9.7 0 3.6 1.2 4.9 1.1 1.3 3.8 1.3 7.9 0 15.7-15.7l0.9 1.1q-2.9 8.5-8.4 13.3-5.6 4.7-11.7 4.7-3.8 0-5.8-2.4-2-2.4-2-6.1zm15.9-41.5q0-2 2.4-3.6 2.4-1.7 5-1.7 3.3 0 3.3 3.1 0 2-2 3.8-2.1 1.8-4.6 1.8-4.1 0-4.1-3.4z"/>
						<path id="&lt;Compound Path&gt;" class="s6" d="m264.9-120.8q0.1-0.3 1.8-4.8 1.8-4.5 3.6-10.5 1.9-5.9 1.9-9.8 1.9-2.1 4.7-2.1 2.7 0 2.7 2.6 0 3.5-3.2 13.5 11.7-17.9 21.1-17.9 3.6 0 5.5 2.6 2 2.7 2 6.5 0 3.4-2.1 8.6-2 5.2-2 7.5 0 3.9 3 3.9 6.3 0 14.2-15.9l1.1 1.3q-7.3 17.2-17.5 17.2-3.5 0-5.3-1.8-1.8-1.8-1.8-4.7 0-2 1.4-6.9 1.5-4.8 1.5-7.3 0-4.9-4-4.9-2.5 0-5.3 1.9-2.8 1.9-4.9 4.2-2.2 2.2-5.1 6.5-2.9 4.3-4.1 6.3l-3.8 6.2q-3.7 0-5.4-2.2z"/>
					</g>
					<path id="&lt;Path&gt;" class="s6" d="m129-190.6c0 0 10.2-21.5 24-34.2l6.8 1.7c0 0-10.5 5.1-25 31.9z"/>
				</g>
			</g>
		</g>
		<g id="&lt;Group&gt;">
			<g id="&lt;Group&gt;">
				<path id="&lt;Compound Path&gt;" fill-rule="evenodd" class="s7" d="m338.5 159.5h-37v-87.7h36.4c7.8 0 14.3 2 19.8 6 5.4 4 8.2 9.8 8.2 17.1 0 8.2-4.1 14.5-12.3 18.7v0.3c10.9 4 16.2 10.2 16.2 21.4 0 17.8-16 24.2-31.3 24.2zm-3-71.1h-16.3v19h15.1c9.2 0 13.8-3.3 13.8-9.7 0-6.7-5.5-9.3-12.6-9.3zm2.2 34.7h-18.5v19.6h19.1q13.8 0 13.8-9.8c0-6.6-4.9-9.8-14.4-9.8z"/>
				<path id="&lt;Compound Path&gt;" fill-rule="evenodd" class="s8" d="m388.6 107.4c6.4-6.1 14.2-9.1 23.3-9.1 9 0 16.8 3 23 9 6.3 5.9 9.4 13.2 9.4 22 0 9-3.1 16.5-9.5 22.5-6.4 6-14.1 9-23.2 9-9.1 0-16.9-2.9-23.1-8.8-6.3-6-9.5-13.4-9.5-22.3 0-8.9 3.2-16.4 9.6-22.3zm12.6 33.1c2.8 2.8 6.4 4.3 10.6 4.3 8.4 0 14.6-6.4 14.6-15.4 0-4.3-1.4-8-4.2-10.8-2.8-2.9-6.4-4.4-10.6-4.4q-6.2 0-10.4 4.4c-2.8 2.8-4.2 6.5-4.2 10.8 0 4.5 1.4 8.2 4.2 11.1z"/>
				<path id="&lt;Compound Path&gt;" fill-rule="evenodd" class="s9" d="m462.6 107.4c6.4-6.1 14.2-9.1 23.3-9.1 9.1 0 16.8 3 23.1 9 6.2 5.9 9.4 13.2 9.4 22 0 9-3.2 16.5-9.5 22.5-6.4 6-14.2 9-23.2 9-9.2 0-16.9-2.9-23.2-8.8-6.3-6-9.4-13.4-9.4-22.3 0-8.9 3.1-16.4 9.5-22.3zm12.7 33.1c2.8 2.8 6.3 4.3 10.5 4.3 8.4 0 14.7-6.4 14.7-15.4 0-4.3-1.5-8-4.3-10.8-2.8-2.9-6.4-4.4-10.5-4.4q-6.2 0-10.4 4.4c-2.8 2.8-4.3 6.5-4.3 10.8 0 4.5 1.5 8.2 4.3 11.1z"/>
				<path id="&lt;Compound Path&gt;" class="s10" d="m552 160.8c-12.6 0-21.3-4.6-26.1-13.8l12.9-7.6c2.4 4.8 6.9 7.3 13.4 7.3 4.4 0 7.3-2 7.3-4.4 0-2.3-1.9-4.1-9.5-5.8-14.3-3.1-21.3-9.6-21.3-19.4 0-5.5 2.2-10.1 6.7-13.5 4.6-3.6 10-5.4 16.2-5.4 11.1 0 19.2 4.8 23.1 12.1l-12.6 7.5c-2.3-3.8-5.9-5.7-10.9-5.7-3.6 0-6.3 2-6.3 4.3 0 2.6 2.6 4.4 7.9 5.5 15.1 3.2 23 9.1 23 19.5 0 11.6-9 19.4-23.8 19.4z"/>
				<path id="&lt;Compound Path&gt;" class="s11" d="m624 159.1c-2.6 0.8-5.3 1.1-8.2 1.1-15.6 0-23.7-8.5-23.7-22.5v-22.9h-10.8v-15.2h11v-18.7h17.2v18.7h14.8v15.2h-14.8v20.8c0 6.8 3.6 9.5 10.5 9.5 1.4 0 2.8-0.1 4-0.4z"/>
			</g>
			<g id="&lt;Group&gt;">
				<path id="&lt;Path&gt;" class="s5" d="m265.8 147.8l-113.8 65.6c-24.2 14-54.5-3.5-54.5-31.5v-131.3c0-28 30.3-45.5 54.5-31.5l33.5 19.3 6.8 4 73.5 42.4c24.2 14 24.2 49 0 63z"/>
				<g id="&lt;Group&gt;">
					<g id="&lt;Group&gt;">
						<path id="&lt;Compound Path&gt;" fill-rule="evenodd" class="s6" d="m150.8 126.8q0 5-3.3 9.2-3.4 4.2-8.4 6.7-5.1 2.5-10.4 3.9-5.3 1.4-9.6 1.4-8.1 0-8.1-5.6 0-0.2 0.3-0.2 0.2 0 0.9 0.2 0.8 0.2 2.3 0.4 1.5 0.2 3.7 0.2 12.3 0 20.7-5.3 8.4-5.3 8.4-12.2 0-9.3-18.3-9.3-1 0-2.8 0.1-1.8 0-2.6 0l-6.6 23.7q-2.2 0-3.6-1-1.4-1.1-1.4-2.6 0-0.6 1.1-4.2 1.2-3.9 3.2-10.1 2-6.2 5.7-15.7 3.7-9.6 6.7-15.2-2.7 0.6-5.1 1.6-2.3 1-3.6 1.7-1.3 0.8-1.6 0.8-0.5 0-1.4-0.8-0.9-0.8-0.9-1.3 3.2-1.3 5.2-2 1.9-0.7 5.3-1.4 1.5-0.2 3-0.4 2-0.2 4.1-0.2h0.2q2.9 0 5.4 0.4 2.6 0.5 5.4 1.6 2.9 1.1 4.5 3.5 1.7 2.5 1.7 6.1 0 11.4-16.8 14.1 16.7 1.1 16.7 11.9zm-18.7-13.2q3.8-0.8 7.2-2.4 3.4-1.6 5.4-4.4 2-2.8 2-6.6 0-9.5-12.4-9.5-1 0-1.4 0.1-4.3 8.3-8.9 23.7 4.3-0.1 8.1-0.9z"/>
						<path id="&lt;Compound Path&gt;" class="s6" d="m181.6 130.2q-1 2.4-3 4.8-1.1 1.2-2.4 2.5-3.8 3.6-7.1 3.6-2.2 0-2.2-2.2 0-1.3 1.9-5.6 1.8-4.3 1.8-6.7 0-2.2-1.2-3.9-1.2-1.7-2.5-2.6-1.4-0.9-2.6-1.9-1.1-1-1.1-1.8 0-0.2 0.2-1.3 0.3-1.1 0.3-1.4 0-1.8-1.1-1.8-0.8 0-1.9 1.5-1.1 1.5-1.1 3.5 0 1 0.8 1.7-2.4 7.2-6 14l0.7 1.2q3.1-5.3 6.7-14.1 0.1 0.2 0.9 0.7 0.7 0.5 1 0.7l0.8 0.8q0.6 0.5 0.7 0.9 0.2 0.4 0.5 1.1 0.2 0.7 0.2 1.4 0 1.9-2 6.7-2.1 4.8-2.1 7 0 2.1 1.5 3.5 1.4 1.3 3.9 1.4 4.4 0 8.8-4 1-0.9 2-2 2.8-3.1 4.5-6.9z"/>
						<path id="&lt;Compound Path&gt;" class="s6" d="m213.2 130.1q-0.3 0.5-0.6 1.1-2.9 4.7-5.8 7.4-3.2 3.1-5.3 3.1-1.3 0-1.9-1-0.7-1-0.7-2.3 0-1.9 2.2-5.8 2.1-3.8 2.1-4.4 0-1.3-2.9-1.8l-2.7 3.8q-0.9 1.4-2.9 4-2 2.6-3.5 4.2-1.5 1.5-3.2 2.7-1.8 1.3-3.1 1.3-2 0-2-2.9 0-3.6 2.3-8.4 2.3-4.9 6-8.6 3.6-3.7 6.8-3.7 3.6 0 3.6 4.1 0 1.2-0.3 2.6 3.5 0 3.6-3.2 0-2.4-2-4-1.9-1.6-4.8-1.6-4.5 0-9.3 3.9-4.9 3.8-7.9 9.1-1.6 2.7-2.3 5.3-0.5 1.5-0.6 2.9-0.1 0.7-0.1 1.4 0 2.9 1.5 4.4 1.5 1.5 3.9 1.5 2.6 0 5.2-2 2.6-2 5.9-6.3-0.3 1.2-0.2 2.1 0 2.1 1.3 3.6 1.3 1.5 3.9 1.5 4 0 8.1-3.8 2.3-2 4.1-4.8 1.3-2.1 2.3-4.7z"/>
						<path id="&lt;Compound Path&gt;" class="s6" d="m228.2 104.1q-1.9 0-3.6 1.1-1.8 1.2-1.8 2.7 0 2.4 3 2.4 1.8 0 3.3-1.3 1.5-1.3 1.5-2.7 0-2.2-2.4-2.2zm2.6 26q-0.2 0.5-0.5 0.9-5.3 10.4-10.8 10.4-1.9 0-2.7-1-0.9-0.9-0.9-3.5 0-3 1.9-7 1.9-4 3.8-7.1 1.9-3.2 1.9-4.1 0-1.6-1.6-1.6-2.3 0-4.9 4-2.5 4.1-4.1 8.9-0.2 0.6-0.3 1.2-0.8 2.4-1 4.3-0.2 1.2-0.2 2.2 0 2.7 1.4 4.4 1.5 1.8 4.2 1.8 4.4-0.1 8.4-3.5 1.5-1.2 2.7-2.8 2-2.9 3.4-6.7z"/>
						<path id="&lt;Compound Path&gt;" class="s6" d="m264.9 130.1q-5.7 11.4-10.3 11.4-2.1 0-2.1-2.8 0-1.7 1.5-5.4 1.4-3.7 1.4-6.2 0-2.7-1.4-4.6-1.3-2-3.9-2-6.8 0-15.3 12.9 2.4-7.1 2.4-9.6 0-1.9-2-1.9-2 0-3.4 1.5 0 2.8-1.3 7.1-0.1 0.3-0.2 0.5-1.1 3.7-2.2 6.6-0.1 0.2-0.2 0.4-1.3 3.2-1.3 3.4 1.2 1.6 3.9 1.6l2.7-4.4q0.9-1.5 3-4.6 2.1-3 3.6-4.7 1.5-1.6 3.6-3 2-1.4 3.7-1.4 3 0 3 3.6 0 1.8-1.1 5.3-1.1 3.5-1.1 4.9 0 2.1 1.4 3.4 1.3 1.3 3.8 1.3 7.3 0 12.6-12.4z"/>
					</g>
					<path id="&lt;Path&gt;" class="s6" d="m128.7 91.2c0 0 7.4-15.4 17.3-24.6l4.9 1.2c0 0-8.1 6.4-18 23z"/>
				</g>
				<path id="&lt;Path&gt;" class="s6" d="m192.3 42.4c-10 3.9-23.9 11.3-41.4 25.4l-7.3 1.3q-0.1-0.1 0-0.1c0.5-0.6 14.3-17.2 41.9-30.6z"/>
			</g>
		</g>
		<g id="&lt;Group&gt;">
			<g id="&lt;Group&gt;">
				<path id="&lt;Compound Path&gt;" fill-rule="evenodd" class="s12" d="m357.9 442.2h-36.9v-87.7h36.4c7.7 0 14.2 2 19.7 6 5.5 4.1 8.3 9.8 8.3 17.2 0 8.1-4.2 14.4-12.3 18.7v0.2c10.8 4 16.1 10.2 16.1 21.4 0 17.8-15.9 24.2-31.3 24.2zm-3-71h-16.2v18.9h15c9.3 0 13.9-3.3 13.9-9.6 0-6.8-5.5-9.3-12.7-9.3zm2.3 34.6h-18.5v19.6h19q13.8 0 13.8-9.8c0-6.6-4.8-9.8-14.3-9.8z"/>
				<path id="&lt;Compound Path&gt;" fill-rule="evenodd" class="s13" d="m408 390.1c6.4-6.1 14.2-9.1 23.3-9.1 9.1 0 16.8 3 23.1 9 6.2 5.9 9.4 13.2 9.4 22 0 9-3.2 16.5-9.5 22.6-6.4 5.9-14.1 8.9-23.2 8.9-9.2 0-16.9-2.9-23.2-8.8-6.3-6-9.4-13.4-9.4-22.3 0-8.9 3.1-16.4 9.5-22.3zm12.7 33.1c2.8 2.8 6.3 4.3 10.5 4.3 8.4 0 14.7-6.4 14.7-15.3 0-4.4-1.5-8.1-4.3-10.9-2.8-2.9-6.4-4.4-10.5-4.4q-6.2 0-10.4 4.4c-2.8 2.8-4.3 6.5-4.3 10.9 0 4.4 1.5 8.1 4.3 11z"/>
				<path id="&lt;Compound Path&gt;" fill-rule="evenodd" class="s14" d="m482 390.1c6.4-6.1 14.3-9.1 23.3-9.1 9.1 0 16.8 3 23.1 9 6.3 5.9 9.4 13.2 9.4 22 0 9-3.1 16.5-9.5 22.6-6.4 5.9-14.1 8.9-23.2 8.9-9.2 0-16.9-2.9-23.2-8.8-6.2-6-9.4-13.4-9.4-22.3 0-8.9 3.2-16.4 9.5-22.3zm12.7 33.1c2.8 2.8 6.4 4.3 10.5 4.3 8.4 0 14.7-6.4 14.7-15.3 0-4.4-1.5-8.1-4.3-10.9-2.8-2.9-6.3-4.4-10.5-4.4q-6.2 0-10.4 4.4c-2.8 2.8-4.3 6.5-4.3 10.9 0 4.4 1.5 8.1 4.3 11z"/>
				<path id="&lt;Compound Path&gt;" class="s15" d="m571.4 443.5c-12.5 0-21.3-4.6-26.1-13.8l12.9-7.6c2.5 4.8 6.9 7.3 13.4 7.3 4.4 0 7.3-2 7.3-4.4 0-2.3-1.9-4.1-9.5-5.8-14.2-3.1-21.3-9.6-21.3-19.4 0-5.4 2.3-10 6.7-13.5 4.6-3.6 10-5.4 16.3-5.4 11.1 0 19.1 4.8 23 12.1l-12.6 7.5c-2.2-3.8-5.8-5.7-10.9-5.7-3.6 0-6.2 2-6.2 4.4 0 2.5 2.5 4.3 7.8 5.5 15.1 3.1 23.1 9 23.1 19.4 0 11.6-9.1 19.4-23.9 19.4z"/>
				<path id="&lt;Compound Path&gt;" class="s16" d="m643.4 441.8c-2.5 0.8-5.2 1.2-8.1 1.2-15.6 0-23.8-8.6-23.8-22.6v-22.9h-10.7v-15.1h10.9v-18.7h17.3v18.7h14.8v15.1h-14.8v20.8c0 6.9 3.6 9.5 10.4 9.5 1.5 0 2.8-0.1 4-0.4z"/>
			</g>
			<path id="&lt;Path&gt;" class="s5" d="m253.4 495.2h-104.6c-24.2 0-43.9-19.7-43.9-43.9v-104.6c0-24.2 19.7-43.9 43.9-43.9h104.6c24.3 0 43.9 19.7 43.9 43.9v104.6c0 24.2-19.6 43.9-43.9 43.9z"/>
			<g id="&lt;Group&gt;">
				<g id="&lt;Group&gt;">
					<path id="&lt;Compound Path&gt;" fill-rule="evenodd" class="s6" d="m115.6 425.4q0-0.2 0.4-0.2 0.2 0 1 0.2 0.8 0.2 2.5 0.4 1.7 0.2 4.1 0.2 13.6 0 22.9-5.9 9.3-5.8 9.3-13.4 0-10.3-20.2-10.3-1.2 0-3.2 0-2 0.1-2.9 0.1l-7.3 26.2q-2.4 0-3.9-1.1-1.5-1.2-1.5-2.9 0-0.7 1.1-4.7 1.4-4.3 3.6-11.1 2.2-6.9 6.3-17.4 4.1-10.5 7.4-16.7-3 0.6-5.6 1.7-2.6 1.1-4 1.9-1.4 0.8-1.7 0.8-0.7 0-1.7-0.8-0.9-0.8-0.9-1.4 3.5-1.5 5.7-2.3 2.1-0.7 5.9-1.5 3.8-0.7 7.8-0.7 3.3 0 6.2 0.5 2.9 0.5 6 1.7 3.1 1.2 5 4 1.9 2.7 1.9 6.7 0 12.5-18.6 15.6 18.5 1.1 18.5 13.1 0 5.6-3.8 10.2-3.7 4.6-9.3 7.4-5.6 2.7-11.4 4.3-5.8 1.5-10.6 1.5-9 0-9-6.1zm14.4-30.9q4.8-0.1 9-1 4.1-0.9 7.9-2.6 3.8-1.8 6-4.9 2.2-3.1 2.2-7.3 0-10.5-13.7-10.5-1.1 0-1.6 0.1-4.8 9.2-9.8 26.2z"/>
					<path id="&lt;Compound Path&gt;" class="s6" d="m163.6 414.5q3.9-7.6 6.6-15.4-0.9-0.8-0.9-2 0-2.2 1.3-3.8 1.2-1.7 2.1-1.7 1.1 0 1.1 2 0 0.3-0.2 1.6-0.3 1.2-0.3 1.4 0 0.9 1.3 2 1.2 1.1 2.8 2.1 1.5 1 2.8 2.9 1.3 1.9 1.3 4.2 0 2.7-2 7.4-2.1 4.8-2.1 6.3 0 2.4 2.5 2.4 3.6 0 7.8-4 4.3-4.1 6-8l1 0.8q-2.5 5.6-7.3 9.9-4.8 4.3-9.7 4.3-2.7 0-4.3-1.5-1.6-1.5-1.6-3.8 0-2.4 2.2-7.7 2.3-5.3 2.3-7.5 0-0.8-0.3-1.5-0.2-0.8-0.4-1.2-0.2-0.5-0.9-1.1l-0.9-0.8q-0.2-0.2-1-0.8-0.9-0.5-1.1-0.7-3.9 9.7-7.3 15.5z"/>
					<path id="&lt;Compound Path&gt;" class="s6" d="m189.6 421.9q0-4.8 3.3-10.6 3.4-5.9 8.7-10.1 5.3-4.2 10.3-4.2 3.2 0 5.3 1.7 2.2 1.7 2.2 4.4 0 3.5-4 3.5 0.4-1.4 0.4-2.8 0-4.6-4-4.6-3.6 0-7.6 4.1-4 4.1-6.5 9.5-2.6 5.4-2.6 9.4 0 3.1 2.2 3.1 1.5 0 3.4-1.4 2-1.3 3.6-3 1.6-1.7 3.8-4.6 2.2-2.9 3.3-4.4l2.9-4.2q3.3 0.5 3.3 2 0 0.6-2.4 4.8-2.4 4.3-2.4 6.4 0 1.4 0.7 2.5 0.7 1.1 2.1 1.1 2.4 0 5.9-3.3 3.6-3.4 7.1-9.5l0.8 0.8q-2.5 6.5-7.1 10.6-4.6 4.1-9 4.1-2.8 0-4.3-1.7-1.5-1.6-1.5-3.9 0-1 0.3-2.4-3.7 4.8-6.5 7.1-2.9 2.2-5.7 2.2-2.7 0-4.4-1.7-1.6-1.6-1.6-4.9z"/>
					<path id="&lt;Compound Path&gt;" class="s6" d="m226.6 420.1q0-3.1 1.7-8.5 1.7-5.3 4.5-9.8 2.8-4.4 5.4-4.4 1.8 0 1.8 1.8 0 0.9-2.1 4.4-2.1 3.5-4.2 8-2.1 4.4-2.1 7.7 0 2.9 0.9 3.9 1 1 3.1 1 6.3 0 12.4-12.4l0.8 0.8q-2.3 6.8-6.7 10.6-4.4 3.7-9.3 3.7-3 0-4.6-1.9-1.6-1.9-1.6-4.9zm12.6-32.9q0-1.6 2-2.9 1.9-1.3 3.9-1.3 2.7 0 2.7 2.4 0 1.6-1.7 3-1.6 1.4-3.6 1.4-3.3 0-3.3-2.6z"/>
					<path id="&lt;Compound Path&gt;" class="s6" d="m243.4 424.3q0-0.3 1.4-3.8 1.5-3.6 2.9-8.3 1.5-4.8 1.5-7.9 1.5-1.7 3.7-1.7 2.2 0 2.2 2.1 0 2.8-2.6 10.7 9.3-14.2 16.8-14.2 2.9 0 4.4 2.1 1.6 2.2 1.6 5.2 0 2.6-1.7 6.8-1.6 4.1-1.6 6 0 3.1 2.4 3.1 5 0 11.3-12.7l0.9 1.1q-5.8 13.7-14 13.7-2.7 0-4.2-1.5-1.4-1.4-1.4-3.7 0-1.6 1.2-5.5 1.1-3.8 1.1-5.8 0-4-3.2-4-1.9 0-4.2 1.6-2.2 1.5-3.9 3.3-1.7 1.8-4 5.2-2.3 3.4-3.3 5l-3 5q-3 0-4.3-1.8z"/>
				</g>
				<path id="&lt;Path&gt;" class="s6" d="m135.2 368.8c0 0 15.6-43.2 39.2-66h7.6c0 0-22.2 15.1-42.2 65.5z"/>
			</g>
		</g>
		<g id="&lt;Group&gt;">
			<g id="&lt;Group&gt;">
				<path id="&lt;Compound Path&gt;" fill-rule="evenodd" class="s17" d="m365.3 715.4h-37v-87.7h36.4c7.8 0 14.3 2 19.8 6.1 5.4 4 8.2 9.7 8.2 17.1 0 8.2-4.1 14.4-12.3 18.7v0.2c10.9 4.1 16.2 10.2 16.2 21.4 0 17.8-16 24.2-31.3 24.2zm-3-71h-16.3v18.9h15c9.3 0 13.9-3.2 13.9-9.6 0-6.7-5.5-9.3-12.6-9.3zm2.2 34.6h-18.5v19.6h19.1q13.8 0 13.8-9.7c0-6.6-4.9-9.9-14.4-9.9z"/>
				<path id="&lt;Compound Path&gt;" fill-rule="evenodd" class="s18" d="m415.4 663.3c6.3-6 14.2-9 23.3-9 9 0 16.8 3 23 8.9 6.3 6 9.4 13.2 9.4 22.1 0 8.9-3.1 16.4-9.5 22.5-6.4 5.9-14.1 9-23.2 9-9.1 0-16.9-3-23.1-8.9-6.3-5.9-9.5-13.3-9.5-22.3 0-8.8 3.2-16.3 9.6-22.3zm12.6 33.2c2.8 2.8 6.4 4.2 10.5 4.2 8.4 0 14.7-6.3 14.7-15.3 0-4.4-1.4-8.1-4.2-10.9-2.8-2.9-6.4-4.3-10.6-4.3q-6.2 0-10.4 4.3c-2.8 2.8-4.2 6.5-4.2 10.9 0 4.5 1.4 8.2 4.2 11.1z"/>
				<path id="&lt;Compound Path&gt;" fill-rule="evenodd" class="s19" d="m489.4 663.3c6.4-6 14.2-9 23.3-9 9.1 0 16.8 3 23.1 8.9 6.2 6 9.4 13.2 9.4 22.1 0 8.9-3.2 16.4-9.5 22.5-6.4 5.9-14.2 9-23.2 9-9.2 0-16.9-3-23.2-8.9-6.3-5.9-9.4-13.3-9.4-22.3 0-8.8 3.1-16.3 9.5-22.3zm12.7 33.2c2.8 2.8 6.3 4.2 10.5 4.2 8.4 0 14.7-6.3 14.7-15.3 0-4.4-1.5-8.1-4.3-10.9-2.8-2.9-6.4-4.3-10.5-4.3q-6.2 0-10.4 4.3c-2.8 2.8-4.3 6.5-4.3 10.9 0 4.5 1.5 8.2 4.3 11.1z"/>
				<path id="&lt;Compound Path&gt;" class="s20" d="m578.8 716.8c-12.6 0-21.3-4.6-26.1-13.8l12.9-7.6c2.4 4.8 6.9 7.2 13.4 7.2 4.4 0 7.3-2 7.3-4.3 0-2.4-1.9-4.2-9.5-5.9-14.3-3.1-21.3-9.6-21.3-19.3 0-5.5 2.2-10.1 6.7-13.6 4.6-3.6 10-5.4 16.2-5.4 11.1 0 19.2 4.9 23.1 12.1l-12.6 7.5c-2.3-3.8-5.9-5.7-10.9-5.7-3.6 0-6.3 2-6.3 4.4 0 2.6 2.6 4.4 7.9 5.5 15.1 3.1 23 9.1 23 19.5 0 11.5-9 19.4-23.8 19.4z"/>
				<path id="&lt;Compound Path&gt;" class="s21" d="m650.8 715.1c-2.6 0.8-5.3 1.1-8.2 1.1-15.6 0-23.7-8.5-23.7-22.5v-23h-10.8v-15.1h11v-18.7h17.2v18.7h14.8v15.1h-14.8v20.9c0 6.8 3.6 9.5 10.5 9.5 1.4 0 2.8-0.1 4-0.5z"/>
			</g>
			<g id="&lt;Group&gt;">
				<g id="&lt;Group&gt;">
					<path id="&lt;Path&gt;" class="s5" d="m286.1 711.9c-5.2 1.3-10.4 2.9-15.7 3.6-9.8 1.1-17.1 6.6-24.4 13.2 2.5 1.8 3.9 6.2 7.1 4 5.9-4.2 12.4-5.6 19.3-6.1 4.4-0.3 7.5-2.3 9.7-6 0.7-1.2 1.9-2.2 2.9-3.3-0.7 6.4-5.4 10.6-11 11.3-3.9 0.4-7.8 0.8-11.5 1.8-2.8 0.8-5.4 2.5-9 4.3 6.8 3.8 12.6 4.5 18.6 2.2 3.8-1.4 7.4-3.3 11.1-4.8 6.9-3 10.3-10.5 8-17.5-0.9-2.7-2.5-3.3-5.1-2.7z"/>
					<path id="&lt;Path&gt;" class="s5" d="m249.6 734.8c-1.1-0.3-2-1.5-3-2.4-4.3-4.1-6.8-3.9-11.7 2.1 3.5-0.4 6.1-0.7 8.7-1-2.2 3.3-5.2 4-9.1 2.2-2-1-3.5-1.3-5.5 1.3 2.5 1 4.5 2 6.7 2.6 4.9 1.3 9-0.9 12.8-4.2 3.2 6.4 6.1 12.4 9 18.3q-0.7 0.4-1.4 0.8c-2.8-5.1-5.6-10.1-9-16.3-0.7 2-1.7 3.3-1.4 4.2 1.4 3.3 2.8 6.7 4.9 9.7 1.3 2 3.5 3.9 5.7 4.7 1.5 0.5 3.9-0.7 5.5-1.7 0.7-0.6 1.2-2.9 0.7-3.8-3.6-6-4.8-13.9-12.9-16.5z"/>
					<path id="&lt;Compound Path&gt;" fill-rule="evenodd" class="s5" d="m311.4 666.9c-0.8 1.4-1.5 2.2-2.6 2.1v6.4c1.5 5.1-0.8 11.4-5.1 14.6q-0.6 0.4-1.4 0.7l-6 2.2c1.6 1.5 2.7 3.5 3.2 6 1 4.9-1.7 9.4-6.3 10.5-3 0.8-4 0.3-5.8-2.8-3.1 5.6-8.3 6-13.7 6.3-9.1 0.6-17.2 3.2-23.9 9.8-4.7 4.7-10.8 6.6-17.8 4q0 0.5-0.1 1c0.8 0.8 1.6 1.7 2.5 2.7-3 3.1-6.9 3.8-10.8 4.2-10.1 1.2-19-4.4-24.3-10.9l-5-2.4c-3.9 2.8-10.2 1.7-13.6-2.4q-0.7-0.8-1.2-1.6l-3.4 1.8c-11.8 7.2-33.6 7.9-44.7-7.1l-1.3-0.3-2.3-3.9c-7.3 2.3-12-1.1-18.8-9.4-5-6.1-4.4-15.3 0.2-21.3l3.5-4.6c-6.8-6.6-9.5-17.8-5.7-26.7 3.7-8.2 9.3-14 17.7-16.4l0.2-3.9q0-0.8 0.1-1.5v-0.3c1.5-15.8 21.2-29 38.4-25.1l3 0.3q1.4-1.8 3.2-3.6c4-3.8 8.7-6.2 14.4-5.7 2.8 0.3 3.2 0.3 3.9 0.6 0.6 0.3 1.4 0.8 3.9 1.9q0 0 0 0l4.4-2.1c3.1-1.7 10.2-3.1 13.6-3.2 8.4-0.3 17.2 3.9 21.7 12.4 9.9-5.3 19.6-4.8 29.1 0.3 7.7 4.1 13.7 9.9 15.5 18.9 0.5 2.4 0.5 4.9 0 7.3l3.4-1.1c0.6-0.4 1.3-0.6 1.9-0.6 9.4-0.5 22.8 10.7 24 20 0.6 4.4 0.3 4.8-4.1 5.2-1 0.1-2 0.4-3 0.6q0 0.7 0.1 1.3 1.9 0 3.9 0c8.5 0.1 13.3 8.3 9.1 15.8zm-23-32.9q-0.3-0.1-0.5-0.1 0.1 0.1 0.2 0.3 0.1-0.1 0.3-0.2z"/>
				</g>
				<g id="&lt;Group&gt;">
					<g id="&lt;Group&gt;">
						<path id="&lt;Compound Path&gt;" fill-rule="evenodd" class="s6" d="m172.8 684q0 4.8-3.3 8.9-3.2 4-8.1 6.5-4.9 2.4-10.1 3.7-5 1.3-9.3 1.3-7.8 0-7.8-5.3 0-0.2 0.3-0.2 0.2 0 0.9 0.2 0.7 0.2 2.2 0.3 1.5 0.2 3.6 0.2 11.9 0 20-5.1 8.2-5.1 8.2-11.8 0-9-17.7-9-1 0-2.8 0-1.7 0.1-2.5 0.1l-6.4 23q-2.1 0-3.5-1-1.3-1.1-1.3-2.5 0-0.7 1-4.1 1.2-3.8 3.1-9.8 2-6 5.6-15.2 3.6-9.3 6.5-14.7-2.7 0.5-5 1.5-2.3 1-3.5 1.7-1.2 0.7-1.5 0.7-0.6 0-1.4-0.7-0.9-0.8-0.9-1.3 3.2-1.3 5.1-1.9 1.8-0.7 5.1-1.4 1.4-0.2 2.8-0.4 1.9-0.2 3.9-0.2h0.2q2.9 0 5.4 0.4 2.5 0.5 5.3 1.5 2.7 1.1 4.3 3.5 1.7 2.4 1.7 5.9 0 11-16.3 13.6 16.2 1 16.2 11.6zm-18.1-12.8q3.6-0.8 6.9-2.3 3.3-1.6 5.2-4.3 1.9-2.7 1.9-6.4 0-9.2-12-9.2-0.9 0-1.3 0.1-4.2 8.1-8.6 23 4.2-0.2 7.9-0.9z"/>
						<path id="&lt;Compound Path&gt;" class="s6" d="m202.6 687.3q-1 2.3-2.9 4.6-1.1 1.2-2.3 2.4-3.8 3.5-6.9 3.5-2.2 0-2.2-2.1 0-1.3 1.9-5.5 1.8-4.1 1.8-6.5 0-2-1.2-3.7-1.2-1.7-2.5-2.5-1.3-0.9-2.5-1.8-1.1-1-1.1-1.9 0-0.1 0.3-1.2 0.2-1.1 0.2-1.4 0-1.7-1-1.7-0.8 0-1.9 1.5-1.1 1.4-1.1 3.3 0 1 0.8 1.7-2.3 6.9-5.7 13.5l0.6 1.2q3-5.1 6.5-13.6 0.1 0.2 0.9 0.7 0.7 0.4 0.9 0.7l0.8 0.7q0.6 0.5 0.8 0.9 0.1 0.4 0.3 1 0.3 0.7 0.2 1.4 0 1.9-1.9 6.5-2 4.7-2 6.8 0 2 1.4 3.4 1.4 1.3 3.8 1.3 4.3 0 8.5-3.8 1.1-1 2-2 2.7-3 4.4-6.7z"/>
						<path id="&lt;Compound Path&gt;" class="s6" d="m233.2 687.1q-0.3 0.6-0.6 1.1-2.8 4.5-5.6 7.2-3.1 2.9-5.2 2.9-1.2 0-1.8-0.9-0.6-1-0.6-2.2 0-1.9 2.1-5.6 2.1-3.7 2.1-4.3 0-1.2-2.9-1.7l-2.6 3.7q-0.9 1.3-2.8 3.8-2 2.6-3.4 4-1.4 1.5-3.1 2.7-1.7 1.2-3 1.3-1.9-0.1-1.9-2.8 0-3.5 2.2-8.2 2.2-4.7 5.7-8.3 3.6-3.6 6.7-3.6 3.5 0 3.5 4 0 1.2-0.4 2.5 3.5 0 3.5-3.1 0-2.4-1.8-3.9-1.9-1.5-4.7-1.5-4.4 0-9.1 3.7-4.6 3.7-7.6 8.8-1.5 2.7-2.2 5.2-0.5 1.4-0.6 2.8-0.1 0.7-0.1 1.4 0 2.8 1.5 4.3 1.4 1.4 3.8 1.4 2.4 0 5-1.9 2.5-2 5.7-6.2-0.2 1.2-0.2 2.1 0 2 1.2 3.4 1.4 1.5 3.8 1.5 3.9 0 7.9-3.6 2.3-2.1 3.9-4.7 1.4-2.1 2.3-4.6z"/>
						<path id="&lt;Compound Path&gt;" class="s6" d="m247.7 661.9q-1.8 0-3.5 1.2-1.7 1.1-1.7 2.5 0 2.4 2.9 2.4 1.7 0 3.2-1.3 1.4-1.2 1.4-2.7 0-2.1-2.3-2.1zm2.6 25.3q-0.3 0.4-0.5 0.8-5.2 10.1-10.5 10.1-1.8 0-2.6-0.9-0.9-0.9-0.9-3.4 0-2.9 1.9-6.8 1.8-3.9 3.7-7 1.8-3 1.8-3.9 0-1.5-1.5-1.5-2.3 0-4.8 3.9-2.5 3.9-4 8.6-0.2 0.5-0.3 1.1-0.7 2.4-1 4.2-0.2 1.2-0.2 2.1 0 2.6 1.5 4.3 1.4 1.7 4 1.7 4.3 0 8.1-3.4 1.5-1.2 2.6-2.7 2-2.8 3.3-6.5z"/>
						<path id="&lt;Compound Path&gt;" class="s6" d="m283.3 687.1q-5.6 11.1-10 11.1-2 0-2-2.7 0-1.6 1.4-5.3 1.4-3.6 1.4-5.9 0-2.6-1.3-4.5-1.4-1.9-3.9-1.9-6.6 0-14.7 12.5 2.2-7 2.2-9.4 0-1.8-1.9-1.8-1.9 0-3.3 1.5 0 2.7-1.2 6.8-0.1 0.3-0.2 0.5-1.1 3.6-2.2 6.4-0.1 0.2-0.1 0.4-1.3 3.1-1.3 3.3 1.1 1.6 3.8 1.6l2.6-4.3q0.8-1.5 2.9-4.4 2-3 3.5-4.6 1.5-1.5 3.4-2.9 2-1.3 3.7-1.3 2.8 0 2.8 3.4 0 1.7-1 5.1-1 3.4-1 4.8 0 2.1 1.2 3.3 1.3 1.2 3.7 1.2 7.2 0 12.3-12z"/>
					</g>
					<path id="&lt;Path&gt;" class="s6" d="m191.8 592.1c-3.4 2.6-20.3 17-35.8 55.4q-0.3 0.8-0.6 1.6l-4 0.4c0 0 0.2-0.6 0.7-1.8 3.3-7.8 17.7-40 35.8-57.5 0.6 0.3 1.4 0.8 3.9 1.9z"/>
				</g>
			</g>
		</g>
	</g>
</svg>